<svg width="52" height="71" viewBox="0 0 52 71" fill="none" xmlns="http://www.w3.org/2000/svg">
<rect width="52" height="71" fill="#E0E0E0"/>
<path id="Vector" d="M33.0909 68.6333C33.0909 69.261 33.3399 69.863 33.7832 70.3068C34.2265 70.7506 34.8277 71 35.4545 71L49.6364 71C50.2632 71 50.8644 70.7506 51.3077 70.3068C51.751 69.863 52 69.261 52 68.6333L52 23.6667L44.9091 23.6667C44.2822 23.6667 43.681 23.4173 43.2377 22.9735C42.7945 22.5296 42.5455 21.9277 42.5455 21.3C42.5455 20.6723 42.7945 20.0703 43.2377 19.6265C43.681 19.1827 44.2822 18.9333 44.9091 18.9333L52 18.9333L52 2.36667C52 1.73899 51.751 1.13702 51.3077 0.69318C50.8644 0.249344 50.2632 -7.59162e-08 49.6364 -1.03318e-07L35.4545 -7.23225e-07C34.8277 -7.50626e-07 34.2265 0.249344 33.7832 0.69318C33.3399 1.13702 33.0909 1.73899 33.0909 2.36667C33.0909 4.2497 32.3438 6.05562 31.014 7.38712C29.6842 8.71863 27.8806 9.46667 26 9.46667C24.1194 9.46667 22.3158 8.71863 20.986 7.38712C19.6562 6.05561 18.9091 4.2497 18.9091 2.36667C18.9091 1.73899 18.6601 1.13702 18.2168 0.693179C17.7735 0.249343 17.1723 -1.52237e-06 16.5455 -1.54977e-06L2.36364 -2.16967e-06C1.73676 -2.19708e-06 1.13556 0.249342 0.692291 0.693178C0.249023 1.13701 -7.60136e-08 1.73899 -1.0345e-07 2.36666L-8.27602e-07 18.9333L7.09091 18.9333C7.71778 18.9333 8.31898 19.1827 8.76225 19.6265C9.20552 20.0703 9.45454 20.6723 9.45454 21.3C9.45454 21.9277 9.20552 22.5296 8.76225 22.9735C8.31898 23.4173 7.71778 23.6667 7.09091 23.6667L-1.0345e-06 23.6667L-3.00006e-06 68.6333C-3.02749e-06 69.261 0.24902 69.863 0.692288 70.3068C1.13556 70.7506 1.73676 71 2.36363 71L16.5454 71C17.1723 71 17.7735 70.7506 18.2168 70.3068C18.6601 69.863 18.9091 69.261 18.9091 68.6333C18.9091 66.7503 19.6562 64.9444 20.986 63.6129C22.3158 62.2814 24.1194 61.5333 26 61.5333C27.8806 61.5333 29.6842 62.2814 31.014 63.6129C32.3438 64.9444 33.0909 66.7503 33.0909 68.6333ZM14.6545 23.6667C14.0277 23.6667 13.4265 23.4173 12.9832 22.9735C12.5399 22.5296 12.2909 21.9277 12.2909 21.3C12.2909 20.6723 12.5399 20.0703 12.9832 19.6265C13.4265 19.1827 14.0277 18.9333 14.6545 18.9333L22.2182 18.9333C22.8451 18.9333 23.4463 19.1827 23.8895 19.6265C24.3328 20.0703 24.5818 20.6723 24.5818 21.3C24.5818 21.9277 24.3328 22.5296 23.8895 22.9735C23.4463 23.4173 22.8451 23.6667 22.2182 23.6667L14.6545 23.6667ZM29.7818 23.6667C29.1549 23.6667 28.5537 23.4173 28.1105 22.9735C27.6672 22.5296 27.4182 21.9277 27.4182 21.3C27.4182 20.6723 27.6672 20.0703 28.1105 19.6265C28.5537 19.1827 29.1549 18.9333 29.7818 18.9333L37.3455 18.9333C37.9723 18.9333 38.5735 19.1827 39.0168 19.6265C39.4601 20.0703 39.7091 20.6723 39.7091 21.3C39.7091 21.9277 39.4601 22.5296 39.0168 22.9735C38.5735 23.4173 37.9723 23.6667 37.3455 23.6667L29.7818 23.6667ZM23.6364 49.7L23.6364 35.5C23.6364 34.8723 23.8854 34.2703 24.3287 33.8265C24.7719 33.3827 25.3731 33.1333 26 33.1333C26.6269 33.1333 27.2281 33.3827 27.6713 33.8265C28.1146 34.2703 28.3636 34.8723 28.3636 35.5L28.3636 49.7C28.3636 50.3277 28.1146 50.9296 27.6713 51.3735C27.2281 51.8173 26.6269 52.0667 26 52.0667C25.3731 52.0667 24.7719 51.8173 24.3287 51.3735C23.8854 50.9296 23.6364 50.3277 23.6364 49.7ZM37.8182 49.7L37.8182 35.5C37.8182 34.8723 38.0672 34.2703 38.5105 33.8265C38.9537 33.3827 39.5549 33.1333 40.1818 33.1333C40.8087 33.1333 41.4099 33.3827 41.8532 33.8265C42.2964 34.2703 42.5455 34.8723 42.5455 35.5L42.5455 49.7C42.5455 50.3277 42.2964 50.9296 41.8532 51.3735C41.4099 51.8173 40.8087 52.0667 40.1818 52.0667C39.5549 52.0667 38.9537 51.8173 38.5105 51.3735C38.0672 50.9296 37.8182 50.3277 37.8182 49.7Z" fill="#8987FF"/>
</svg>
